<?xml version="1.0" encoding="utf-8"?>
<!-- Generator: Adobe Illustrator 26.0.0, SVG Export Plug-In . SVG Version: 6.00 Build 0)  -->
<svg version="1.1" id="Capa_1" xmlns="http://www.w3.org/2000/svg" xmlns:xlink="http://www.w3.org/1999/xlink" x="0px" y="0px"
	 viewBox="0 0 500 500" style="enable-background:new 0 0 500 500;" xml:space="preserve">
<style type="text/css">
	.st0{fill:#CFA492;}
	.st1{fill:#FFFFFF;}
</style>
<rect x="-3" y="-3" class="st0" width="509" height="509"/>
<g>
	<path class="st1" d="M368.6,311.2c0,1.4-0.5,2.3-0.9,3.6C335.6,393.3,291,437,221.5,437c-55,0-93.8-34.7-93.8-89.3
		c0-58.6,33.8-99.7,82.5-120.4c-11.3-12.2-19.4-28.4-19.4-44.7c0-12.6,3.2-23,4.1-26.6c-27.1-12.2-50.1-37.4-63.1-65.4
		c-0.5-1.4-0.9-2.7-0.9-4.5c0-3.2,1.8-6.3,5.4-8.1c1.4-0.5,2.7-0.9,4.1-0.9c3.6,0,6.8,1.8,8.6,5.4c14,28.9,27.1,40.1,52.3,55.9
		c18-38.8,57.3-62.7,100.1-62.7c28.4,0,49.2,13.5,49.2,36.1c-0.9,35.2-51.4,58.2-95.2,58.2c-17.1,0-30.7-3.2-42.8-6.8
		c-1.4,5-2.3,10.8-2.3,18.9c0,14,8.6,28,19.8,37.9c10.4-2.7,31.1-6.3,39.2-6.3c13.5,0,27.5,7.2,27.5,19.8c0,14.9-11.3,23-26.6,23
		c-14.4,0-28.9-5.4-43.8-15.3c-48.7,17.6-79.8,59.5-79.8,106.4c0,45.6,32.5,70.4,74.9,70.4c61.3,0,99.2-39.2,128.5-110.5
		c1.8-5,7.7-7.2,12.6-5.4C366.3,304,368.6,307.6,368.6,311.2z M255.4,150.6c32.5,0,74.9-16.2,76.2-38.8c0-11.7-14.9-17.1-30.2-17.1
		c-35.6,0-68.6,21.2-82.5,50.5C230.5,148.8,241.4,150.6,255.4,150.6z M273.8,237.7c3.2-0.5,4.5-1.4,4.1-2.3c0-1.4-2.7-2.7-7.7-2.7
		c-2.3,0-8.1,0.5-16.2,1.8C260.8,237.2,267.5,238.1,273.8,237.7z"/>
</g>
</svg>
