<?xml version="1.0" encoding="utf-8"?>
<!-- Generator: Adobe Illustrator 26.0.0, SVG Export Plug-In . SVG Version: 6.00 Build 0)  -->
<svg version="1.1" xmlns="http://www.w3.org/2000/svg" xmlns:xlink="http://www.w3.org/1999/xlink" x="0px" y="0px"
	 viewBox="0 0 500 500" style="enable-background:new 0 0 500 500;" xml:space="preserve">
<style type="text/css">
	.st0{display:none;}
	.st1{fill:#B8726C;}
	.st2{fill:#FFFFFF;}
</style>
<g id="Capa_2" class="st0">
	
		<image style="display:inline;overflow:visible;" width="214" height="195" xlink:href="D19ED281.jpg"  transform="matrix(2.044 0 0 2.044 -9 71)">
	</image>
</g>
<g id="Capa_1">
	<rect x="-7" y="-3" class="st1" width="515" height="506"/>
	<g>
		<path class="st2" d="M191,387.9c-11.1-6.5-23.4-11.1-36.1-13.4c-2.1-0.4-4.3,0.6-4.9,2.8c-0.5,1.9,0.7,4.5,2.8,4.9
			c12.1,2.2,23.6,6.5,34.2,12.6C191.5,397.4,195.5,390.5,191,387.9z"/>
		<path class="st2" d="M300.7,356.4c-1-1.7-3.7-2.7-5.5-1.4c-10.6,7.9-19.9,17.2-27.8,27.8c-1.3,1.7-0.3,4.5,1.4,5.5
			c2,1.2,4.2,0.3,5.5-1.4c6.8-9.1,15.8-18.1,25-25C301,360.6,301.9,358.4,300.7,356.4z"/>
		<path class="st2" d="M133.2,394.5c-0.2-0.6-1-1.1-1.6-1.2c-0.6-0.2-1.5-0.1-2,0.3c-0.6,0.4-1.1,0.9-1.2,1.6c-0.2,0.7,0,1.4,0.3,2
			c1.3,3.1,2.6,6.1,4,9.2c0.2,0.6,1,1.1,1.6,1.2c0.6,0.2,1.5,0.1,2-0.3c0.6-0.4,1.1-0.9,1.2-1.6c0.2-0.7,0-1.4-0.3-2
			C135.8,400.7,134.5,397.6,133.2,394.5z"/>
		<path class="st2" d="M142.2,393.1c-0.4-0.6-0.9-1-1.6-1.2c-0.6-0.2-1.5-0.1-2,0.3c-0.6,0.4-1.1,0.9-1.2,1.6
			c-0.1,0.6-0.2,1.5,0.3,2c1.7,2.2,3.1,4.7,4.2,7.3c0,0.1,0.1,0.2,0.2,0.4c0.3,0.7,0.6,1.2,1.2,1.6c0.6,0.3,1.4,0.5,2,0.3
			c0.6-0.2,1.3-0.6,1.6-1.2c0.3-0.6,0.5-1.4,0.3-2C145.8,398.8,144.2,395.8,142.2,393.1z"/>
		<path class="st2" d="M156.3,392c-0.7-1.2-2.4-1.8-3.6-1c-1.2,0.8-1.8,2.4-1,3.6c2.2,3.4,4.2,7,6,10.7c0.6,1.2,2.5,1.7,3.6,1
			c1.3-0.8,1.6-2.3,1-3.6C160.5,399,158.5,395.4,156.3,392z"/>
		<path class="st2" d="M300.7,386.2c-1.2-0.6-3-0.4-3.6,1c-2.2,5-5,9.8-8.3,14.2c-0.8,1.1-0.2,3,1,3.6c1.4,0.7,2.7,0.2,3.6-1
			c3.3-4.4,6.1-9.1,8.3-14.2C302.2,388.5,302.1,386.9,300.7,386.2z"/>
		<path class="st2" d="M309.4,387.1c-1.3-0.3-2.9,0.4-3.3,1.9c-0.4,2-1.1,4-1.8,5.9c0,0.1-0.1,0.2-0.1,0.3c-0.1,0.2-0.2,0.4-0.3,0.6
			c-0.2,0.5-0.5,1-0.7,1.5c-0.5,0.9-1,1.8-1.6,2.7c-0.7,1.2-0.3,3,1,3.6c1.3,0.7,2.8,0.3,3.6-1c2.4-3.7,4.1-7.9,5.1-12.2
			C311.6,389,310.9,387.4,309.4,387.1z"/>
		<path class="st2" d="M325.4,384.2c-1.2-0.6-3-0.4-3.6,1c-2.1,4.3-4.2,8.7-6.3,13c-0.6,1.3-0.4,2.9,1,3.6c1.2,0.6,3,0.4,3.6-1
			c2.1-4.3,4.2-8.7,6.3-13C327,386.6,326.7,384.9,325.4,384.2z"/>
		<path class="st2" d="M368.8,102.2c-4.2-2.2-8.3-0.4-12.2,1.7c-4.2,2.3-8.4,5-13.1,6c-4.1,0.9-8.3,0.2-11.1-3
			c-2.7-3.1-4.3-7-7.7-9.6c0,0-0.1-0.1-0.1-0.1c-0.9-2.7-5.5-2.5-5.2,0.6c0.4,4.6,0.7,9.2,0.9,13.8c0.1,4.1,0.5,8.6-0.1,12.7
			c-0.5,3.6-5.3,6.2-8,8.2c-3.5,2.6-7.1,5.1-10.8,7.5c-1.8,1.2-1.7,4.3,0.6,4.9c3.7,0.9,7.3,1.8,11,2.7c1.6,0.4,3.2,0.7,4.8,1.2
			c1.8,0.5,1.6,1.6,1.7,3.3c0.1,3.8,0.3,7.5,0.4,11.3c0.1,2.9-0.3,6.4,1.2,9.1c1.2,2.1,3.7,3.3,5.9,2c2.3-1.3,3.1-4.6,4-7
			c1.9-5.4,3.6-10.9,10-12c7.5-1.2,14.6,3.2,21.7,4.6c2.3,0.4,4.2-1.8,3-3.9c-2.2-4.1-4.5-8.2-6.7-12.4c-1.1-2-2.4-4-3.3-6.1
			c-1.1-2.3,0.5-4.3,1.5-6.4c4.1-8.4,8.3-16.9,12.4-25.3C370.3,104.6,370.1,102.9,368.8,102.2z M351.2,131.5c-1,2-1.6,4.1-1,6.3
			c0.6,2.3,2.1,4.5,3.2,6.6c1.6,2.9,3.2,5.9,4.8,8.8c-4.4-1.4-8.8-3-13.5-3.3c-5.9-0.3-11.6,1.8-14.9,6.8c-1.6,2.3-2.5,5.1-3.4,7.7
			c-0.4,1-0.7,2.1-1.1,3.1c-0.1-1.3,0-2.6-0.1-3.8c-0.1-2-0.2-4.1-0.2-6.1c-0.1-3.2,0.3-7-0.8-10c-1.3-3.5-4.9-4.1-8.2-4.9
			c-2.3-0.6-4.6-1.1-6.9-1.7c2.2-1.6,4.4-3.2,6.6-4.8c3.2-2.5,7.7-5.1,9.1-9.2c0.7-2.1,0.6-4.4,0.7-6.6c0-2.4,0-4.9,0-7.3
			c0-2.4-0.1-4.8-0.3-7.1c1,1.5,2,3.1,3.3,4.5c2.9,3.3,7.2,4.9,11.5,4.9c4.6,0,8.9-1.6,13-3.7c2.2-1.1,4.3-2.4,6.5-3.5
			c1.1-0.6,2.4-1.4,3.8-1.7C359.3,114.9,355.1,123.1,351.2,131.5z"/>
		<path class="st2" d="M444.6,103.7c-2.5-19.1-10-37.1-24.6-50.2c-12.7-11.4-28.8-18.3-45.2-22.3c-18.3-4.5-38-6.1-56.8-4.8
			c-19.2,1.4-37.8,6.7-53.5,18c-27.8,19.9-45.8,53.7-43.8,88.1c1.3,22.3,10.3,44,24.8,61c0.9,4.2,1.9,8.4,2.9,12.5
			c4.8,19.2,9.5,38.3,14.3,57.5c-10.6-2.8-21.8-4.3-33.3-4.3c-5.1,0-10.1,0.3-15,0.9c2.2-37.5-9.3-75.7-32-105.6
			c-3.9-5.2-8.5-10.3-14.7-12.3c-10.1-3.2-21.2,3.7-26.3,13.1s-5.3,20.4-5,31c1,32.4,6.9,65.6,23.1,93.6
			c-29.5,19.5-48.7,51-48.7,86.5c0,3.5,0.2,6.9,0.5,10.3c-15.3-3.4-30.9-5.9-46.5-7.7c-2.9-0.3-5.3,2.7-5.3,5.3c0,3.1,2.5,5,5.3,5.3
			c15.2,1.7,30.3,4.3,45.2,7.6c1,0.2,2,0.2,3-0.1c1,4.7,2.4,9.2,4,13.6c-0.5,0.1-0.9,0.3-1.4,0.5c-10.2,5.3-20.3,10.8-30.2,16.6
			c-2.4,1.4-3.5,4.9-1.9,7.3c1.6,2.4,4.7,3.4,7.3,1.9c9.9-5.8,20-11.3,30.2-16.6c0.1,0,0.1-0.1,0.2-0.1c3,6,6.6,11.7,10.7,17.1
			c-0.4,0.2-0.7,0.5-1,0.8c-4,4.5-8,9-11.9,13.5c-0.9,1.1-1.6,2.3-1.6,3.8c0,1.3,0.6,2.9,1.6,3.8c1,0.9,2.3,1.6,3.8,1.6
			c1.4-0.1,2.8-0.5,3.8-1.6c4-4.5,8-9,11.9-13.5c0.1-0.1,0.2-0.2,0.3-0.3c21.8,23.3,54.3,38.1,90.6,38.1c48,0,89.4-25.9,108.1-63
			c0,0,0,0,0,0c8.5,3.9,16.6,8.6,24.3,13.9c2.3,1.6,6,0.5,7.3-1.9c1.4-2.7,0.5-5.6-1.9-7.3c-7.7-5.3-15.8-10-24.3-13.9
			c-0.4-0.2-0.8-0.3-1.2-0.4c1.6-4.3,3-8.8,4-13.4c0.6,0.3,1.3,0.4,2.1,0.5c4.8,0.2,9.6,0.5,14.4,1c4.8,0.5,8.3,1,13.4,1.9
			c2.7,0.5,5.9-0.7,6.5-3.7c0.6-2.6-0.8-6-3.7-6.5c-10.1-1.8-20.3-2.9-30.6-3.3c-0.1,0-0.3,0-0.4,0c0.2-2,0.4-4,0.5-6
			c0.6,0,1.2,0,1.8-0.1c12.2-3,24.5-5.6,36.8-7.9c2.8-0.5,4.4-3.9,3.7-6.5c-0.8-3-3.7-4.2-6.5-3.7c-12,2.2-23.9,4.8-35.8,7.7
			c-1.5-25.3-12.7-48.2-30.3-65.9c1.6-22.4,3.1-45.3,2.2-67.7c10.3-0.5,20.5-2.2,30.3-5.2c3.1,19.4-0.4,39.6-10,56.8
			c-1.6,3-0.2,6.9,3.2,7.8c15.4,4.1,29.1-7.4,37.4-19.2c8.8-12.6,12.8-27.8,14.7-42.9c1.1-8.8,1.5-17.6,1.8-26.4
			c17.1-4.7,31.1-18,38.9-33.7C445.3,145.8,447.3,124.1,444.6,103.7z M229.4,468.5c-62.6,0-113.6-45.8-113.6-102.1
			c0-11.4,2.1-22.4,6-32.6c7-1.6,14.8-1.5,23.3,0.9c31.4,8.9,41.2,42.8,67.1,58.9c11.6,7.2,28.8,8.3,38.2-3.3
			c7.6-9.4,9.4-23.1,12.5-34.4c7.1-25.9,25.7-52.1,55.4-51.1c0.6,0,1.2,0.1,1.8,0.1c14.2,16.9,22.7,37.9,23,60.6
			c-0.1,0.5-0.1,0.9,0,1.4C342.7,423,291.9,468.5,229.4,468.5z M432.1,144.9c-4.2,16.3-13.7,31.3-28.7,39.4c-3.4,1.8-6.7,3-10.5,4
			c-2.3,0.6-3.5,2.2-3.7,3.9c-1.4,0.8-2.4,2.2-2.4,4.3c-0.5,14.5-1,29.3-5,43.4c-3.3,11.7-9.1,23.7-18.8,31.5
			c-2.9,2.3-6.2,4.2-9.7,5c8.7-19.6,10.9-41.7,6.1-62.7c-0.6-2.7-3.9-4.7-6.5-3.7c-10.9,3.9-22.2,6.1-33.6,6.6
			c-1.4-17.8-4.7-35.3-11-52.1c-2.7-7.3-6.1-14.6-11.2-20.5s-12.2-10.4-20-11.2c-15.4-1.5-28.9,12.5-32.5,27.5
			c-0.9,3.7-1.3,7.5-1.4,11.2c-5-8.9-8.6-18.6-10.5-28.5c-2.8-14.9-1.4-30.4,3.8-44.9c5.1-14.2,13.9-27.3,25.1-37.7
			c11.8-10.9,26-18.1,41.8-21.3c17.9-3.7,37.7-2.9,55.2-0.2c15.5,2.4,30.7,6.8,44,15c13.5,8.3,23.5,20.5,28.3,36
			c2.7,8.8,3.9,17.9,4.1,27C435.2,126.3,434.4,135.8,432.1,144.9z"/>
	</g>
</g>
</svg>
