<svg id="Capa_1" data-name="Capa 1" xmlns="http://www.w3.org/2000/svg" viewBox="0 0 386.12 447.54"><defs><style>.cls-1{fill:#b8726c;}</style></defs><path class="cls-1" d="M191,387.9A112.21,112.21,0,0,0,155,374.46a4.1,4.1,0,0,0-4.91,2.79c-.53,1.94.66,4.51,2.79,4.9A105.75,105.75,0,0,1,187,394.79C191.45,397.38,195.47,390.49,191,387.9Z" transform="translate(-59.59 -25.96)"/><path class="cls-1" d="M300.69,356.39c-1-1.69-3.73-2.73-5.46-1.43a137.15,137.15,0,0,0-27.81,27.84c-1.3,1.72-.28,4.45,1.43,5.46,2,1.19,4.16.3,5.45-1.44a128.91,128.91,0,0,1,25-25C301,360.56,301.86,358.4,300.69,356.39Z" transform="translate(-59.59 -25.96)"/><path class="cls-1" d="M133.16,394.52a2.67,2.67,0,0,0-4.87.64,3.24,3.24,0,0,0,.27,2l4,9.22a2.65,2.65,0,0,0,3.63.95,2.69,2.69,0,0,0,1.23-1.59,3.11,3.11,0,0,0-.27-2.05Q135.13,399.14,133.16,394.52Z" transform="translate(-59.59 -25.96)"/><path class="cls-1" d="M142.15,393.07a2.86,2.86,0,0,0-1.59-1.22,2.66,2.66,0,0,0-3.27,1.85,2.61,2.61,0,0,0,.27,2.05,35,35,0,0,1,4.25,7.29l.15.37a2.87,2.87,0,0,0,1.22,1.58,2.66,2.66,0,0,0,3.64-.95,2.59,2.59,0,0,0,.26-2.05A36.66,36.66,0,0,0,142.15,393.07Z" transform="translate(-59.59 -25.96)"/><path class="cls-1" d="M156.25,392a2.66,2.66,0,1,0-4.59,2.68,114,114,0,0,1,6,10.66,2.68,2.68,0,0,0,3.64.95,2.73,2.73,0,0,0,.95-3.64A115.08,115.08,0,0,0,156.25,392Z" transform="translate(-59.59 -25.96)"/><path class="cls-1" d="M300.7,386.15c-1.15-.61-3-.41-3.63,1a70.58,70.58,0,0,1-8.28,14.18,2.67,2.67,0,0,0,1,3.64,2.73,2.73,0,0,0,3.63-.95,70.86,70.86,0,0,0,8.28-14.18A2.74,2.74,0,0,0,300.7,386.15Z" transform="translate(-59.59 -25.96)"/><path class="cls-1" d="M309.45,387.11a2.7,2.7,0,0,0-3.28,1.86,37.42,37.42,0,0,1-1.84,5.91c-.05.1-.09.21-.14.32l-.26.56c-.23.5-.47,1-.73,1.48-.48.92-1,1.81-1.56,2.68a2.69,2.69,0,0,0,1,3.64,2.72,2.72,0,0,0,3.64-.95,38.49,38.49,0,0,0,5.06-12.23A2.71,2.71,0,0,0,309.45,387.11Z" transform="translate(-59.59 -25.96)"/><path class="cls-1" d="M325.4,384.22a2.7,2.7,0,0,0-3.64,1l-6.27,13a2.73,2.73,0,0,0,.95,3.64,2.69,2.69,0,0,0,3.64-1l6.27-13A2.71,2.71,0,0,0,325.4,384.22Z" transform="translate(-59.59 -25.96)"/><path class="cls-1" d="M368.78,102.16c-4.17-2.19-8.35-.35-12.18,1.69-4.23,2.26-8.36,5-13.12,6-4.07.86-8.28.17-11.12-3s-4.33-7-7.68-9.63l-.14-.1c-.9-2.71-5.49-2.53-5.18.65.44,4.57.74,9.16.87,13.76.12,4.14.5,8.62-.07,12.74-.49,3.59-5.29,6.21-8,8.24-3.49,2.65-7.1,5.15-10.79,7.52-1.84,1.19-1.68,4.3.64,4.86l11,2.66c1.61.39,3.25.71,4.83,1.17,1.81.54,1.65,1.65,1.71,3.34q.22,5.66.43,11.31c.11,2.89-.29,6.41,1.19,9.05,1.18,2.12,3.69,3.29,5.94,2s3.15-4.61,4-7c1.87-5.4,3.57-10.94,10-12,7.45-1.21,14.62,3.19,21.75,4.57a2.69,2.69,0,0,0,3-3.91l-6.73-12.36c-1.1-2-2.37-4-3.32-6.1-1.06-2.34.48-4.32,1.52-6.44l12.43-25.34A2.7,2.7,0,0,0,368.78,102.16Zm-17.57,29.36c-.95,2-1.59,4.06-1,6.31s2.11,4.51,3.25,6.6l4.79,8.79c-4.43-1.41-8.81-3-13.5-3.3-5.89-.32-11.57,1.77-14.92,6.79a32.49,32.49,0,0,0-3.35,7.69c-.36,1-.71,2.09-1.11,3.12-.08-1.27,0-2.59-.05-3.81q-.12-3-.23-6.09c-.12-3.17.3-7-.82-10-1.3-3.5-4.94-4.07-8.16-4.85l-6.85-1.66c2.24-1.56,4.44-3.15,6.6-4.81,3.22-2.47,7.72-5.12,9.1-9.15a21.74,21.74,0,0,0,.65-6.63c0-2.44,0-4.89,0-7.33s-.14-4.76-.28-7.14a41.48,41.48,0,0,0,3.29,4.5,15.26,15.26,0,0,0,11.54,4.94c4.61,0,8.95-1.62,13-3.69,2.19-1.11,4.31-2.36,6.49-3.51a17,17,0,0,1,3.81-1.7C359.33,114.86,355.14,123.13,351.21,131.52Z" transform="translate(-59.59 -25.96)"/><path class="cls-1" d="M444.63,103.72c-2.48-19.12-10-37.14-24.56-50.16-12.74-11.36-28.81-18.31-45.25-22.34A186.26,186.26,0,0,0,318,26.41c-19.18,1.35-37.76,6.74-53.52,18-27.81,19.86-45.79,53.66-43.76,88.13a105,105,0,0,0,24.77,61c.88,4.21,1.91,8.39,2.93,12.53l14.32,57.52a131.15,131.15,0,0,0-48.34-3.45,160.42,160.42,0,0,0-32-105.62c-3.93-5.17-8.53-10.33-14.72-12.28-10.12-3.17-21.25,3.71-26.27,13.06s-5.3,20.43-5,31c1,32.45,6.94,65.63,23.12,93.59-29.5,19.5-48.7,51-48.7,86.46a96.47,96.47,0,0,0,.55,10.25A462.12,462.12,0,0,0,64.91,369c-2.86-.32-5.32,2.68-5.32,5.32,0,3.15,2.46,5,5.32,5.32a432.18,432.18,0,0,1,45.21,7.64,5.77,5.77,0,0,0,2.95-.12,97.66,97.66,0,0,0,4,13.64,5.66,5.66,0,0,0-1.39.5q-15.3,7.94-30.21,16.6a5.32,5.32,0,1,0,5.37,9.18q14.89-8.65,30.21-16.6a2.12,2.12,0,0,0,.2-.12A104.18,104.18,0,0,0,132,427.4a4.19,4.19,0,0,0-1,.81q-6,6.78-11.93,13.55a5.64,5.64,0,0,0-1.56,3.76,5.33,5.33,0,0,0,5.32,5.32,5.28,5.28,0,0,0,3.76-1.56l11.94-13.55c.09-.11.19-.22.28-.34,21.77,23.29,54.33,38.11,90.65,38.11,48,0,89.41-25.86,108.07-63l0,0a161.51,161.51,0,0,1,24.35,13.91c2.29,1.59,6,.5,7.27-1.91a5.44,5.44,0,0,0-1.91-7.27,161.47,161.47,0,0,0-24.34-13.92,8.08,8.08,0,0,0-1.2-.41,98.52,98.52,0,0,0,4-13.4,5.66,5.66,0,0,0,2.08.47q7.2.27,14.38,1c4.81.51,8.33,1,13.41,1.92,2.73.48,5.86-.74,6.54-3.71.59-2.6-.79-6-3.71-6.55a223.25,223.25,0,0,0-30.62-3.31h-.38c.23-2,.39-4,.49-6a5.49,5.49,0,0,0,1.8-.12q18.28-4.49,36.81-7.94c2.83-.53,4.43-3.94,3.72-6.54-.82-3-3.71-4.25-6.55-3.72q-18,3.36-35.81,7.71c-1.46-25.27-12.66-48.24-30.27-65.91,1.62-22.43,3.15-45.26,2.2-67.72a122.94,122.94,0,0,0,30.3-5.2,89.17,89.17,0,0,1-9.95,56.79,5.38,5.38,0,0,0,3.18,7.81c15.37,4.07,29.09-7.39,37.35-19.15,8.84-12.6,12.81-27.81,14.73-42.89,1.12-8.76,1.5-17.59,1.83-26.4,17.11-4.74,31.13-18,38.89-33.71C445.31,145.82,447.27,124.06,444.63,103.72ZM229.45,468.5c-62.65,0-113.62-45.8-113.62-102.09a92.35,92.35,0,0,1,6-32.64,46.38,46.38,0,0,1,23.3.88c31.44,8.87,41.17,42.85,67.11,58.92,11.59,7.18,28.84,8.3,38.23-3.29,7.61-9.38,9.38-23.1,12.47-34.41,7.07-25.88,25.69-52.14,55.42-51.06l1.78.11c14.23,16.89,22.75,37.87,23,60.6a5.05,5.05,0,0,0,0,1.4C342.75,423,291.91,468.5,229.45,468.5ZM432.07,145c-4.19,16.25-13.7,31.31-28.71,39.37a43,43,0,0,1-10.5,4,4.65,4.65,0,0,0-3.73,3.94,5,5,0,0,0-2.44,4.28c-.54,14.55-1,29.26-5,43.36-3.27,11.75-9.09,23.69-18.78,31.47a25,25,0,0,1-9.7,5,100.58,100.58,0,0,0,6.12-62.7c-.6-2.66-3.93-4.66-6.54-3.72a115.27,115.27,0,0,1-33.62,6.63c-1.43-17.82-4.68-35.33-11-52.12-2.75-7.33-6.11-14.56-11.24-20.47s-12.19-10.45-20-11.2c-15.42-1.48-28.89,12.46-32.48,27.54a55.51,55.51,0,0,0-1.42,11.23A95,95,0,0,1,232.66,143,85.94,85.94,0,0,1,236.44,98a95.47,95.47,0,0,1,25.15-37.69A87.26,87.26,0,0,1,303.41,39c17.86-3.69,37.67-2.92,55.19-.2,15.53,2.42,30.73,6.77,44,15a64,64,0,0,1,28.26,36,99.33,99.33,0,0,1,4.1,27A103,103,0,0,1,432.07,145Z" transform="translate(-59.59 -25.96)"/></svg>